# Blender 4.0.1
# www.blender.org
mtllib tun_obj.mtl
o tun_obj
v -0.073338 1.380318 -1.260325
v -0.091492 1.339028 -1.259879
v -0.027662 1.399938 -1.261446
v 0.018025 1.380318 -1.262568
v 0.036169 1.339028 -1.263013
v 0.018025 1.297738 -1.262568
v -0.027662 1.278108 -1.261446
v -0.073338 1.297738 -1.260325
v -0.120404 1.380318 -3.177597
v -0.138548 1.339028 -3.177152
v -0.074727 1.399938 -3.178719
v -0.029041 1.380318 -3.179840
v -0.010897 1.339028 -3.180285
v -0.029041 1.297738 -3.179840
v -0.074727 1.278108 -3.178719
v -0.120404 1.297738 -3.177597
v -0.114715 1.375508 -3.177737
v -0.130751 1.339028 -3.177343
v -0.074727 1.392688 -3.178719
v -0.034729 1.375508 -3.179700
v -0.018694 1.339028 -3.180094
v -0.034729 1.302548 -3.179700
v -0.074727 1.285368 -3.178719
v -0.114715 1.302548 -3.177737
v -0.047555 1.339028 -2.071842
vn -0.9290 0.3693 0.0228
vn -0.4291 0.9032 0.0105
vn 0.4291 0.9032 -0.0105
vn 0.9290 0.3693 -0.0228
vn 0.9290 -0.3693 -0.0228
vn 0.4291 -0.9032 -0.0105
vn -0.4291 -0.9032 0.0105
vn -0.9290 -0.3693 0.0228
vn -0.0245 -0.0000 -0.9997
vn 0.9268 -0.3689 -0.0698
vn 0.4274 -0.9021 -0.0589
vn -0.4298 -0.9021 -0.0379
vn -0.9292 -0.3689 -0.0242
vn -0.9292 0.3689 -0.0242
vn -0.4298 0.9021 -0.0379
vn 0.4274 0.9021 -0.0589
vn 0.9268 0.3689 -0.0698
vt 0.500000 0.916300
vt 0.369400 0.890300
vt 0.223400 0.776600
vt 0.083700 0.500000
vt 0.109700 0.369400
vt 0.223400 0.223400
vt 0.500000 0.083700
vt 0.630600 0.109700
vt 0.776600 0.223400
vt 0.916300 0.500000
vt 0.890300 0.630600
vt 0.776600 0.776600
vt 0.500000 0.500000
s 0
usemtl wire_022022022
f 2/1/1 1/2/1 9/3/1 10/1/1
f 1/2/2 3/4/2 11/4/2 9/3/2
f 3/4/3 4/5/3 12/6/3 11/4/3
f 4/5/4 5/7/4 13/7/4 12/6/4
f 5/7/5 6/8/5 14/9/5 13/7/5
f 6/8/6 7/10/6 15/10/6 14/9/6
f 7/10/7 8/11/7 16/12/7 15/10/7
f 8/11/8 2/1/8 10/1/8 16/12/8
f 10/1/9 9/3/9 17/3/9 18/1/9
f 9/3/9 11/4/9 19/4/9 17/3/9
f 11/4/9 12/6/9 20/6/9 19/4/9
f 12/6/9 13/7/9 21/7/9 20/6/9
f 13/7/9 14/9/9 22/9/9 21/7/9
f 14/9/9 15/10/9 23/10/9 22/9/9
f 15/10/9 16/12/9 24/12/9 23/10/9
f 16/12/9 10/1/9 18/1/9 24/12/9
f 18/1/10 17/3/10 25/13/10
f 17/3/11 19/4/11 25/13/11
f 19/4/12 20/6/12 25/13/12
f 20/6/13 21/7/13 25/13/13
f 21/7/14 22/9/14 25/13/14
f 22/9/15 23/10/15 25/13/15
f 23/10/16 24/12/16 25/13/16
f 24/12/17 18/1/17 25/13/17
